<?xml version="1.0" encoding="UTF-8" standalone="no" ?>
<!DOCTYPE svg PUBLIC "-//W3C//DTD SVG 1.1//EN" "http://www.w3.org/Graphics/SVG/1.1/DTD/svg11.dtd">
<svg xmlns="http://www.w3.org/2000/svg" version="1.1" width="320" height="320" viewBox="0 0 320 320"
     xml:space="preserve">
<desc>CV Favicon</desc>
    <rect x="0" y="0" width="320" height="320" rx="75" style="fill: rgb(108,59,244); fill-opacity:1.0;"/>
    <rect x="20" y="20" width="280" height="280" rx="60" style="fill: rgb(255,255,255); fill-opacity:1.0;"/>

    <rect x="60" y="60" width="180" height="5" rx="0" style="fill: rgb(0,0,0); fill-opacity:1.0;"/>
    <rect x="60" y="80" width="100" height="3" rx="0" style="fill: rgb(0,0,0); fill-opacity:1.0;"/>
    <rect x="60" y="100" width="110" height="3" rx="0" style="fill: rgb(0,0,0); fill-opacity:1.0;"/>
    <rect x="60" y="120" width="190" height="3" rx="0" style="fill: rgb(0,0,0); fill-opacity:1.0;"/>
    <rect x="60" y="140" width="100" height="3" rx="0" style="fill: rgb(0,0,0); fill-opacity:1.0;"/>
    <rect x="60" y="160" width="80" height="3" rx="0" style="fill: rgb(0,0,0); fill-opacity:1.0;"/>
    <rect x="60" y="200" width="180" height="5" rx="0" style="fill: rgb(0,0,0); fill-opacity:1.0;"/>
    <rect x="60" y="220" width="200" height="3" rx="0" style="fill: rgb(0,0,0); fill-opacity:1.0;"/>
    <rect x="60" y="240" width="120" height="3" rx="0" style="fill: rgb(0,0,0); fill-opacity:1.0;"/>
    <rect x="60" y="260" width="100" height="3" rx="0" style="fill: rgb(0,0,0); fill-opacity:1.0;"/>
</svg>